<svg width="31" height="30" viewBox="0 0 31 30" fill="none" xmlns="http://www.w3.org/2000/svg">
<path d="M27.4103 8.99672L19.3126 8.23738L16.096 0.685415C15.8708 0.156619 15.1293 0.156619 14.9041 0.685415L11.6875 8.23732L3.58986 8.99672C3.02284 9.04986 2.79373 9.76292 3.22149 10.1429L9.33117 15.5696L7.54316 23.5908C7.41795 24.1525 8.01791 24.5931 8.50749 24.2992L15.5001 20.1012L22.4926 24.2992C22.9823 24.5932 23.5821 24.1525 23.457 23.5908L21.6689 15.5696L27.7786 10.1429C28.2064 9.76292 27.9772 9.04986 27.4103 8.99672Z" fill="#FFDC64"/>
<path d="M7.2219 0.425562C7.63471 1.00529 8.79987 3.495 9.46601 4.94598C9.57076 5.17407 9.2877 5.38013 9.10697 5.20731C7.95736 4.10834 5.9917 2.20129 5.57889 1.6215C5.25224 1.1628 5.35523 0.523203 5.80897 0.192935C6.26265 -0.137333 6.89524 -0.0331405 7.2219 0.425562ZM23.7781 0.425562C23.3653 1.00529 22.2001 3.495 21.534 4.94598C21.4292 5.17407 21.7123 5.38013 21.893 5.20731C23.0426 4.10834 25.0082 2.20123 25.4211 1.6215C25.7478 1.1628 25.6448 0.523203 25.191 0.192935C24.7374 -0.137333 24.1048 -0.0331405 23.7781 0.425562ZM30.3014 17.426C29.6297 17.2045 26.9296 16.8386 25.36 16.6378C25.1133 16.6062 25.0051 16.9415 25.2228 17.0631C26.6077 17.8366 29.0019 19.1506 29.6736 19.372C30.2051 19.5473 30.7765 19.2538 30.9498 18.7163C31.1232 18.1789 30.8329 17.6013 30.3014 17.426ZM0.698624 17.426C1.37033 17.2045 4.07043 16.8386 5.63998 16.6378C5.88671 16.6062 5.99485 16.9415 5.77718 17.0631C4.39229 17.8366 1.99808 19.1506 1.32638 19.372C0.794894 19.5473 0.223512 19.2538 0.050166 18.7163C-0.12318 18.1789 0.167143 17.6013 0.698624 17.426ZM14.5188 28.9766C14.5188 28.2622 15.0119 25.5533 15.3098 23.9823C15.3566 23.7354 15.7054 23.7354 15.7522 23.9823C16.0501 25.5533 16.5433 28.2622 16.5433 28.9766C16.5433 29.5418 16.0901 30 15.5311 30C14.972 30.0001 14.5188 29.5418 14.5188 28.9766Z" fill="#FFEE75"/>
<path d="M17.2657 3.43163L16.096 0.685415C15.8707 0.156619 15.1292 0.156619 14.904 0.685415L11.6874 8.23732L3.58986 8.99672C3.02284 9.04986 2.79373 9.76292 3.22149 10.1429L9.33117 15.5696L7.54316 23.5908C7.41795 24.1525 8.01791 24.5931 8.50749 24.2992L9.43816 23.7405C10.9639 13.7547 15.2531 6.42442 17.2657 3.43163Z" fill="#FFC850"/>
</svg>
